# xmcd
#
# Track frame offsets:
# 150
# 16127
# 28244
# 42019
# 55764
# 67284
# 80267
# 91726
# 104752
# 120251
# 137256
# 150772
# 165893
# 182266
# 195234
# 208074
# 224435
#
# Disc length: 3137 seconds
#
#
# Revision: 0
# Processed by: cddbd v1.5PL3 Copyright (c) Steve Scherf et al.
# Submitted via: FreeRIP 2.53 
#
DISCID=cb0c3f11
DTITLE=Frickie, Janie - 17 Greatest Hits
DYEAR=1900
DGENRE=
TTITLE0=Playin' Hard To Get
TTITLE1=I'll Love Away Your Troubles For A While
TTITLE2=Pass Me By If You're Only Passing By
TTITLE3=But Love Me
TTITLE4=Down To My Last Broken Heart
TTITLE5=I'll Need Someone To Hold Me
TTITLE6=Don't Worry 'Bout Me Baby
TTITLE7=Do Me With Love
TTITLE8=You Don't Know Love
TTITLE9=It Ain't Easy Being Easy
TTITLE10=He's A Heartache
TTITLE11=Let's Stop Talkin' About It
TTITLE12=Tell Me A Lie
TTITLE13=If The Fall Don't Get You
TTITLE14=You Heart's Not In It
TTITLE15=The First Word In Memory Is Me
TTITLE16=She's Single Again
EXTD=
EXTT0=
EXTT1=
EXTT2=
EXTT3=
EXTT4=
EXTT5=
EXTT6=
EXTT7=
EXTT8=
EXTT9=
EXTT10=
EXTT11=
EXTT12=
EXTT13=
EXTT14=
EXTT15=
EXTT16=
PLAYORDER=
